<mxfile host="app.diagrams.net" modified="2023-10-04T06:51:57.084Z" agent="Mozilla/5.0 (Windows NT 10.0; Win64; x64) AppleWebKit/537.36 (KHTML, like Gecko) Chrome/117.0.0.0 Safari/537.36" etag="ahm8mHPx1fCgmlTKR2BW" version="22.0.2" type="device">
  <diagram name="Page-1" id="CwtU5W00rmsxaFziBQnV">
    <mxGraphModel dx="765" dy="409" grid="1" gridSize="10" guides="1" tooltips="1" connect="1" arrows="1" fold="1" page="1" pageScale="1" pageWidth="850" pageHeight="1100" math="0" shadow="0">
      <root>
        <mxCell id="0" />
        <mxCell id="1" parent="0" />
        <mxCell id="bE6fJ_Obk9xs4ScPlqxu-4" value="Fleet" style="rounded=1;whiteSpace=wrap;html=1;fontSize=14;fontStyle=1;" parent="1" vertex="1">
          <mxGeometry x="50" y="200" width="120" height="80" as="geometry" />
        </mxCell>
        <mxCell id="JL5QoYLRGvVziy8lOslh-235" style="edgeStyle=orthogonalEdgeStyle;orthogonalLoop=1;jettySize=auto;html=1;exitX=0.5;exitY=0;exitDx=0;exitDy=0;rounded=1;" edge="1" parent="1" source="bE6fJ_Obk9xs4ScPlqxu-5" target="JL5QoYLRGvVziy8lOslh-234">
          <mxGeometry relative="1" as="geometry" />
        </mxCell>
        <mxCell id="bE6fJ_Obk9xs4ScPlqxu-5" value="Location" style="rounded=1;whiteSpace=wrap;html=1;fontSize=14;fontStyle=1;" parent="1" vertex="1">
          <mxGeometry x="210" y="200" width="120" height="80" as="geometry" />
        </mxCell>
        <mxCell id="iHeRPoUoyF_u9JPmyREJ-40" style="edgeStyle=orthogonalEdgeStyle;rounded=1;orthogonalLoop=1;jettySize=auto;html=1;exitX=0.25;exitY=1;exitDx=0;exitDy=0;entryX=0;entryY=0.5;entryDx=0;entryDy=0;" parent="1" source="bE6fJ_Obk9xs4ScPlqxu-7" target="iHeRPoUoyF_u9JPmyREJ-33" edge="1">
          <mxGeometry relative="1" as="geometry">
            <Array as="points">
              <mxPoint x="400" y="300" />
              <mxPoint x="330" y="300" />
              <mxPoint x="330" y="550" />
            </Array>
          </mxGeometry>
        </mxCell>
        <mxCell id="bE6fJ_Obk9xs4ScPlqxu-7" value="Admin" style="rounded=1;whiteSpace=wrap;html=1;fontSize=14;fontStyle=1;" parent="1" vertex="1">
          <mxGeometry x="370" y="200" width="120" height="80" as="geometry" />
        </mxCell>
        <mxCell id="bE6fJ_Obk9xs4ScPlqxu-8" value="Schedule" style="rounded=1;whiteSpace=wrap;html=1;fontSize=14;fontStyle=1;" parent="1" vertex="1">
          <mxGeometry x="530" y="200" width="120" height="80" as="geometry" />
        </mxCell>
        <mxCell id="iHeRPoUoyF_u9JPmyREJ-67" style="edgeStyle=orthogonalEdgeStyle;rounded=1;orthogonalLoop=1;jettySize=auto;html=1;exitX=0;exitY=1;exitDx=0;exitDy=0;entryX=1;entryY=0.5;entryDx=0;entryDy=0;" parent="1" source="bE6fJ_Obk9xs4ScPlqxu-9" target="iHeRPoUoyF_u9JPmyREJ-35" edge="1">
          <mxGeometry relative="1" as="geometry" />
        </mxCell>
        <mxCell id="bE6fJ_Obk9xs4ScPlqxu-9" value="Vehical" style="rounded=1;whiteSpace=wrap;html=1;fontSize=14;fontStyle=1;" parent="1" vertex="1">
          <mxGeometry x="690" y="200" width="120" height="80" as="geometry" />
        </mxCell>
        <mxCell id="bE6fJ_Obk9xs4ScPlqxu-16" value="Inquiry" style="rounded=1;whiteSpace=wrap;html=1;fontSize=14;fontStyle=1;" parent="1" vertex="1">
          <mxGeometry x="50" y="820" width="120" height="80" as="geometry" />
        </mxCell>
        <mxCell id="bE6fJ_Obk9xs4ScPlqxu-17" value="Employee" style="rounded=1;whiteSpace=wrap;html=1;fontSize=14;fontStyle=1;" parent="1" vertex="1">
          <mxGeometry x="210" y="820" width="120" height="80" as="geometry" />
        </mxCell>
        <mxCell id="iHeRPoUoyF_u9JPmyREJ-65" style="edgeStyle=orthogonalEdgeStyle;rounded=1;orthogonalLoop=1;jettySize=auto;html=1;exitX=0.5;exitY=0;exitDx=0;exitDy=0;entryX=0.5;entryY=1;entryDx=0;entryDy=0;" parent="1" source="bE6fJ_Obk9xs4ScPlqxu-18" target="iHeRPoUoyF_u9JPmyREJ-37" edge="1">
          <mxGeometry relative="1" as="geometry" />
        </mxCell>
        <mxCell id="iHeRPoUoyF_u9JPmyREJ-73" style="edgeStyle=orthogonalEdgeStyle;rounded=1;orthogonalLoop=1;jettySize=auto;html=1;exitX=0;exitY=0;exitDx=0;exitDy=0;entryX=0;entryY=0.5;entryDx=0;entryDy=0;" parent="1" source="bE6fJ_Obk9xs4ScPlqxu-18" target="iHeRPoUoyF_u9JPmyREJ-36" edge="1">
          <mxGeometry relative="1" as="geometry">
            <Array as="points">
              <mxPoint x="370" y="660" />
            </Array>
          </mxGeometry>
        </mxCell>
        <mxCell id="iHeRPoUoyF_u9JPmyREJ-76" style="edgeStyle=orthogonalEdgeStyle;rounded=1;orthogonalLoop=1;jettySize=auto;html=1;exitX=0.25;exitY=0;exitDx=0;exitDy=0;entryX=0.5;entryY=0;entryDx=0;entryDy=0;" parent="1" edge="1">
          <mxGeometry relative="1" as="geometry">
            <mxPoint x="400" y="821" as="sourcePoint" />
            <mxPoint x="40" y="501" as="targetPoint" />
            <Array as="points">
              <mxPoint x="400" y="801" />
              <mxPoint x="210" y="801" />
              <mxPoint x="210" y="481" />
              <mxPoint x="40" y="481" />
            </Array>
          </mxGeometry>
        </mxCell>
        <mxCell id="JL5QoYLRGvVziy8lOslh-157" style="edgeStyle=orthogonalEdgeStyle;orthogonalLoop=1;jettySize=auto;html=1;exitX=0.5;exitY=1;exitDx=0;exitDy=0;rounded=1;" edge="1" parent="1">
          <mxGeometry relative="1" as="geometry">
            <mxPoint x="430" y="901" as="sourcePoint" />
            <mxPoint x="430.5" y="1051" as="targetPoint" />
          </mxGeometry>
        </mxCell>
        <mxCell id="bE6fJ_Obk9xs4ScPlqxu-18" value="Passenger" style="rounded=1;whiteSpace=wrap;html=1;fontSize=14;fontStyle=1;" parent="1" vertex="1">
          <mxGeometry x="370" y="820" width="120" height="80" as="geometry" />
        </mxCell>
        <mxCell id="iHeRPoUoyF_u9JPmyREJ-71" style="edgeStyle=orthogonalEdgeStyle;rounded=1;orthogonalLoop=1;jettySize=auto;html=1;exitX=0.917;exitY=-0.002;exitDx=0;exitDy=0;entryX=0.5;entryY=1;entryDx=0;entryDy=0;exitPerimeter=0;" parent="1" source="bE6fJ_Obk9xs4ScPlqxu-21" target="iHeRPoUoyF_u9JPmyREJ-69" edge="1">
          <mxGeometry relative="1" as="geometry">
            <Array as="points" />
          </mxGeometry>
        </mxCell>
        <mxCell id="bE6fJ_Obk9xs4ScPlqxu-21" value="Ticket" style="rounded=1;whiteSpace=wrap;html=1;fontSize=14;fontStyle=1;" parent="1" vertex="1">
          <mxGeometry x="690" y="820" width="120" height="80" as="geometry" />
        </mxCell>
        <mxCell id="iHeRPoUoyF_u9JPmyREJ-63" style="edgeStyle=orthogonalEdgeStyle;rounded=1;orthogonalLoop=1;jettySize=auto;html=1;exitX=0.25;exitY=0;exitDx=0;exitDy=0;entryX=1;entryY=0.5;entryDx=0;entryDy=0;" parent="1" source="bE6fJ_Obk9xs4ScPlqxu-22" target="iHeRPoUoyF_u9JPmyREJ-34" edge="1">
          <mxGeometry relative="1" as="geometry" />
        </mxCell>
        <mxCell id="bE6fJ_Obk9xs4ScPlqxu-22" value="Trip" style="rounded=1;whiteSpace=wrap;html=1;fontSize=14;fontStyle=1;" parent="1" vertex="1">
          <mxGeometry x="530" y="820" width="120" height="80" as="geometry" />
        </mxCell>
        <mxCell id="iHeRPoUoyF_u9JPmyREJ-43" style="edgeStyle=orthogonalEdgeStyle;rounded=1;orthogonalLoop=1;jettySize=auto;html=1;exitX=1;exitY=0.5;exitDx=0;exitDy=0;entryX=0.75;entryY=0;entryDx=0;entryDy=0;" parent="1" source="iHeRPoUoyF_u9JPmyREJ-33" target="bE6fJ_Obk9xs4ScPlqxu-18" edge="1">
          <mxGeometry relative="1" as="geometry">
            <Array as="points">
              <mxPoint x="530" y="550" />
              <mxPoint x="530" y="800" />
              <mxPoint x="460" y="800" />
            </Array>
          </mxGeometry>
        </mxCell>
        <mxCell id="iHeRPoUoyF_u9JPmyREJ-45" style="edgeStyle=orthogonalEdgeStyle;rounded=1;orthogonalLoop=1;jettySize=auto;html=1;exitX=1;exitY=0;exitDx=0;exitDy=0;entryX=0.5;entryY=1;entryDx=0;entryDy=0;" parent="1" source="iHeRPoUoyF_u9JPmyREJ-33" target="bE6fJ_Obk9xs4ScPlqxu-8" edge="1">
          <mxGeometry relative="1" as="geometry" />
        </mxCell>
        <mxCell id="iHeRPoUoyF_u9JPmyREJ-46" style="edgeStyle=orthogonalEdgeStyle;rounded=1;orthogonalLoop=1;jettySize=auto;html=1;exitX=0.5;exitY=0;exitDx=0;exitDy=0;" parent="1" source="iHeRPoUoyF_u9JPmyREJ-33" target="bE6fJ_Obk9xs4ScPlqxu-9" edge="1">
          <mxGeometry relative="1" as="geometry">
            <Array as="points">
              <mxPoint x="750" y="490" />
            </Array>
          </mxGeometry>
        </mxCell>
        <mxCell id="iHeRPoUoyF_u9JPmyREJ-47" style="edgeStyle=orthogonalEdgeStyle;rounded=1;orthogonalLoop=1;jettySize=auto;html=1;exitX=0.5;exitY=0;exitDx=0;exitDy=0;entryX=0.5;entryY=1;entryDx=0;entryDy=0;" parent="1" source="iHeRPoUoyF_u9JPmyREJ-33" target="bE6fJ_Obk9xs4ScPlqxu-5" edge="1">
          <mxGeometry relative="1" as="geometry">
            <Array as="points">
              <mxPoint x="270" y="490" />
            </Array>
          </mxGeometry>
        </mxCell>
        <mxCell id="iHeRPoUoyF_u9JPmyREJ-48" style="edgeStyle=orthogonalEdgeStyle;rounded=1;orthogonalLoop=1;jettySize=auto;html=1;exitX=0;exitY=0;exitDx=0;exitDy=0;entryX=0.5;entryY=1;entryDx=0;entryDy=0;" parent="1" source="iHeRPoUoyF_u9JPmyREJ-33" target="bE6fJ_Obk9xs4ScPlqxu-4" edge="1">
          <mxGeometry relative="1" as="geometry" />
        </mxCell>
        <mxCell id="iHeRPoUoyF_u9JPmyREJ-49" style="edgeStyle=orthogonalEdgeStyle;rounded=1;orthogonalLoop=1;jettySize=auto;html=1;exitX=0.5;exitY=1;exitDx=0;exitDy=0;entryX=0.5;entryY=0;entryDx=0;entryDy=0;" parent="1" source="iHeRPoUoyF_u9JPmyREJ-33" target="bE6fJ_Obk9xs4ScPlqxu-17" edge="1">
          <mxGeometry relative="1" as="geometry">
            <Array as="points">
              <mxPoint x="270" y="610" />
            </Array>
          </mxGeometry>
        </mxCell>
        <mxCell id="iHeRPoUoyF_u9JPmyREJ-50" style="edgeStyle=orthogonalEdgeStyle;rounded=1;orthogonalLoop=1;jettySize=auto;html=1;exitX=0.5;exitY=1;exitDx=0;exitDy=0;entryX=0.5;entryY=0;entryDx=0;entryDy=0;" parent="1" source="iHeRPoUoyF_u9JPmyREJ-33" target="bE6fJ_Obk9xs4ScPlqxu-22" edge="1">
          <mxGeometry relative="1" as="geometry">
            <Array as="points">
              <mxPoint x="590" y="610" />
            </Array>
          </mxGeometry>
        </mxCell>
        <mxCell id="iHeRPoUoyF_u9JPmyREJ-51" style="edgeStyle=orthogonalEdgeStyle;rounded=1;orthogonalLoop=1;jettySize=auto;html=1;exitX=0;exitY=1;exitDx=0;exitDy=0;entryX=0.5;entryY=0;entryDx=0;entryDy=0;" parent="1" source="iHeRPoUoyF_u9JPmyREJ-33" target="bE6fJ_Obk9xs4ScPlqxu-16" edge="1">
          <mxGeometry relative="1" as="geometry" />
        </mxCell>
        <mxCell id="iHeRPoUoyF_u9JPmyREJ-52" style="edgeStyle=orthogonalEdgeStyle;rounded=1;orthogonalLoop=1;jettySize=auto;html=1;exitX=1;exitY=1;exitDx=0;exitDy=0;entryX=0.5;entryY=0;entryDx=0;entryDy=0;" parent="1" source="iHeRPoUoyF_u9JPmyREJ-33" target="bE6fJ_Obk9xs4ScPlqxu-21" edge="1">
          <mxGeometry relative="1" as="geometry" />
        </mxCell>
        <mxCell id="iHeRPoUoyF_u9JPmyREJ-33" value="Managed" style="rhombus;whiteSpace=wrap;html=1;fontSize=18;fontStyle=1;rounded=1;" parent="1" vertex="1">
          <mxGeometry x="370" y="490" width="120" height="120" as="geometry" />
        </mxCell>
        <mxCell id="iHeRPoUoyF_u9JPmyREJ-53" style="edgeStyle=orthogonalEdgeStyle;rounded=1;orthogonalLoop=1;jettySize=auto;html=1;exitX=0;exitY=0;exitDx=0;exitDy=0;entryX=0.75;entryY=1;entryDx=0;entryDy=0;" parent="1" source="iHeRPoUoyF_u9JPmyREJ-34" target="bE6fJ_Obk9xs4ScPlqxu-4" edge="1">
          <mxGeometry relative="1" as="geometry" />
        </mxCell>
        <mxCell id="iHeRPoUoyF_u9JPmyREJ-54" style="edgeStyle=orthogonalEdgeStyle;rounded=1;orthogonalLoop=1;jettySize=auto;html=1;exitX=0.5;exitY=0;exitDx=0;exitDy=0;entryX=0.75;entryY=1;entryDx=0;entryDy=0;" parent="1" source="iHeRPoUoyF_u9JPmyREJ-34" target="bE6fJ_Obk9xs4ScPlqxu-5" edge="1">
          <mxGeometry relative="1" as="geometry">
            <Array as="points">
              <mxPoint x="300" y="310" />
            </Array>
          </mxGeometry>
        </mxCell>
        <mxCell id="iHeRPoUoyF_u9JPmyREJ-55" style="edgeStyle=orthogonalEdgeStyle;rounded=1;orthogonalLoop=1;jettySize=auto;html=1;exitX=0.5;exitY=0;exitDx=0;exitDy=0;entryX=0.25;entryY=1;entryDx=0;entryDy=0;" parent="1" source="iHeRPoUoyF_u9JPmyREJ-34" target="bE6fJ_Obk9xs4ScPlqxu-8" edge="1">
          <mxGeometry relative="1" as="geometry">
            <Array as="points">
              <mxPoint x="560" y="310" />
            </Array>
          </mxGeometry>
        </mxCell>
        <mxCell id="iHeRPoUoyF_u9JPmyREJ-56" style="edgeStyle=orthogonalEdgeStyle;rounded=1;orthogonalLoop=1;jettySize=auto;html=1;exitX=1;exitY=0;exitDx=0;exitDy=0;entryX=0.25;entryY=1;entryDx=0;entryDy=0;" parent="1" source="iHeRPoUoyF_u9JPmyREJ-34" target="bE6fJ_Obk9xs4ScPlqxu-9" edge="1">
          <mxGeometry relative="1" as="geometry" />
        </mxCell>
        <mxCell id="JL5QoYLRGvVziy8lOslh-1" style="edgeStyle=orthogonalEdgeStyle;rounded=1;orthogonalLoop=1;jettySize=auto;html=1;exitX=0;exitY=0.5;exitDx=0;exitDy=0;entryX=0.75;entryY=0;entryDx=0;entryDy=0;" edge="1" parent="1" source="iHeRPoUoyF_u9JPmyREJ-34" target="bE6fJ_Obk9xs4ScPlqxu-17">
          <mxGeometry relative="1" as="geometry" />
        </mxCell>
        <mxCell id="iHeRPoUoyF_u9JPmyREJ-34" value="Manage" style="rhombus;whiteSpace=wrap;html=1;fontSize=13;fontStyle=1;rounded=1;" parent="1" vertex="1">
          <mxGeometry x="390" y="310" width="80" height="80" as="geometry" />
        </mxCell>
        <mxCell id="iHeRPoUoyF_u9JPmyREJ-68" style="edgeStyle=orthogonalEdgeStyle;rounded=1;orthogonalLoop=1;jettySize=auto;html=1;exitX=0;exitY=0.5;exitDx=0;exitDy=0;entryX=1;entryY=1;entryDx=0;entryDy=0;" parent="1" source="iHeRPoUoyF_u9JPmyREJ-35" target="bE6fJ_Obk9xs4ScPlqxu-4" edge="1">
          <mxGeometry relative="1" as="geometry" />
        </mxCell>
        <mxCell id="iHeRPoUoyF_u9JPmyREJ-35" value="Type" style="rhombus;whiteSpace=wrap;html=1;fontSize=13;fontStyle=1;rounded=1;" parent="1" vertex="1">
          <mxGeometry x="390" y="400" width="80" height="80" as="geometry" />
        </mxCell>
        <mxCell id="iHeRPoUoyF_u9JPmyREJ-74" style="edgeStyle=orthogonalEdgeStyle;rounded=1;orthogonalLoop=1;jettySize=auto;html=1;exitX=1;exitY=0.5;exitDx=0;exitDy=0;entryX=0.25;entryY=0;entryDx=0;entryDy=0;" parent="1" source="iHeRPoUoyF_u9JPmyREJ-36" target="bE6fJ_Obk9xs4ScPlqxu-21" edge="1">
          <mxGeometry relative="1" as="geometry" />
        </mxCell>
        <mxCell id="iHeRPoUoyF_u9JPmyREJ-36" value="Book" style="rhombus;whiteSpace=wrap;html=1;fontSize=13;fontStyle=1;rounded=1;" parent="1" vertex="1">
          <mxGeometry x="390" y="620" width="80" height="80" as="geometry" />
        </mxCell>
        <mxCell id="iHeRPoUoyF_u9JPmyREJ-58" style="edgeStyle=orthogonalEdgeStyle;rounded=1;orthogonalLoop=1;jettySize=auto;html=1;exitX=1;exitY=0;exitDx=0;exitDy=0;entryX=0.75;entryY=1;entryDx=0;entryDy=0;" parent="1" source="iHeRPoUoyF_u9JPmyREJ-37" target="bE6fJ_Obk9xs4ScPlqxu-8" edge="1">
          <mxGeometry relative="1" as="geometry" />
        </mxCell>
        <mxCell id="iHeRPoUoyF_u9JPmyREJ-59" style="edgeStyle=orthogonalEdgeStyle;rounded=1;orthogonalLoop=1;jettySize=auto;html=1;exitX=0;exitY=0;exitDx=0;exitDy=0;entryX=0.25;entryY=1;entryDx=0;entryDy=0;" parent="1" source="iHeRPoUoyF_u9JPmyREJ-37" target="bE6fJ_Obk9xs4ScPlqxu-5" edge="1">
          <mxGeometry relative="1" as="geometry" />
        </mxCell>
        <mxCell id="iHeRPoUoyF_u9JPmyREJ-62" style="edgeStyle=orthogonalEdgeStyle;rounded=1;orthogonalLoop=1;jettySize=auto;html=1;exitX=0;exitY=1;exitDx=0;exitDy=0;entryX=0.25;entryY=1;entryDx=0;entryDy=0;" parent="1" source="iHeRPoUoyF_u9JPmyREJ-37" target="bE6fJ_Obk9xs4ScPlqxu-4" edge="1">
          <mxGeometry relative="1" as="geometry" />
        </mxCell>
        <mxCell id="iHeRPoUoyF_u9JPmyREJ-37" value="Find" style="rhombus;whiteSpace=wrap;html=1;fontSize=13;fontStyle=1;rounded=1;" parent="1" vertex="1">
          <mxGeometry x="390" y="710" width="80" height="80" as="geometry" />
        </mxCell>
        <mxCell id="iHeRPoUoyF_u9JPmyREJ-64" style="edgeStyle=orthogonalEdgeStyle;rounded=1;orthogonalLoop=1;jettySize=auto;html=1;exitX=1;exitY=1;exitDx=0;exitDy=0;entryX=0.75;entryY=0;entryDx=0;entryDy=0;entryPerimeter=0;" parent="1" source="iHeRPoUoyF_u9JPmyREJ-37" target="bE6fJ_Obk9xs4ScPlqxu-22" edge="1">
          <mxGeometry relative="1" as="geometry" />
        </mxCell>
        <mxCell id="iHeRPoUoyF_u9JPmyREJ-72" style="edgeStyle=orthogonalEdgeStyle;rounded=1;orthogonalLoop=1;jettySize=auto;html=1;exitX=0;exitY=0.5;exitDx=0;exitDy=0;entryX=0.917;entryY=0;entryDx=0;entryDy=0;entryPerimeter=0;" parent="1" source="iHeRPoUoyF_u9JPmyREJ-69" target="bE6fJ_Obk9xs4ScPlqxu-22" edge="1">
          <mxGeometry relative="1" as="geometry">
            <mxPoint x="640" y="810" as="targetPoint" />
          </mxGeometry>
        </mxCell>
        <mxCell id="iHeRPoUoyF_u9JPmyREJ-69" value="Contain" style="rhombus;whiteSpace=wrap;html=1;fontSize=13;fontStyle=1;rounded=1;" parent="1" vertex="1">
          <mxGeometry x="770" y="500" width="60" height="60" as="geometry" />
        </mxCell>
        <mxCell id="iHeRPoUoyF_u9JPmyREJ-75" style="edgeStyle=orthogonalEdgeStyle;rounded=1;orthogonalLoop=1;jettySize=auto;html=1;exitX=0.5;exitY=1;exitDx=0;exitDy=0;entryX=0.25;entryY=0;entryDx=0;entryDy=0;" parent="1" source="iHeRPoUoyF_u9JPmyREJ-70" target="bE6fJ_Obk9xs4ScPlqxu-16" edge="1">
          <mxGeometry relative="1" as="geometry">
            <Array as="points">
              <mxPoint x="40" y="800" />
              <mxPoint x="80" y="800" />
            </Array>
          </mxGeometry>
        </mxCell>
        <mxCell id="iHeRPoUoyF_u9JPmyREJ-70" value="Give" style="rhombus;whiteSpace=wrap;html=1;fontSize=13;fontStyle=1;rounded=1;" parent="1" vertex="1">
          <mxGeometry x="10" y="500" width="60" height="60" as="geometry" />
        </mxCell>
        <mxCell id="JL5QoYLRGvVziy8lOslh-35" value="Stand&lt;br&gt;Name" style="ellipse;whiteSpace=wrap;html=1;rounded=1;" vertex="1" parent="1">
          <mxGeometry x="279" y="50" width="60" height="40" as="geometry" />
        </mxCell>
        <mxCell id="JL5QoYLRGvVziy8lOslh-36" value="Loc.&lt;br&gt;Name" style="ellipse;whiteSpace=wrap;html=1;rounded=1;" vertex="1" parent="1">
          <mxGeometry x="200" y="50" width="60" height="40" as="geometry" />
        </mxCell>
        <mxCell id="JL5QoYLRGvVziy8lOslh-44" value="" style="endArrow=classic;html=1;entryX=0;entryY=1;entryDx=0;entryDy=0;exitX=0.5;exitY=0;exitDx=0;exitDy=0;rounded=1;" edge="1" parent="1" source="bE6fJ_Obk9xs4ScPlqxu-5" target="JL5QoYLRGvVziy8lOslh-35">
          <mxGeometry width="50" height="50" relative="1" as="geometry">
            <mxPoint x="240" y="130" as="sourcePoint" />
            <mxPoint x="290" y="80" as="targetPoint" />
            <Array as="points" />
          </mxGeometry>
        </mxCell>
        <mxCell id="JL5QoYLRGvVziy8lOslh-47" value="" style="edgeStyle=none;orthogonalLoop=1;jettySize=auto;html=1;rounded=1;entryX=1;entryY=1;entryDx=0;entryDy=0;" edge="1" parent="1" target="JL5QoYLRGvVziy8lOslh-36">
          <mxGeometry width="100" relative="1" as="geometry">
            <mxPoint x="270" y="200" as="sourcePoint" />
            <mxPoint x="300" y="90" as="targetPoint" />
            <Array as="points" />
          </mxGeometry>
        </mxCell>
        <mxCell id="JL5QoYLRGvVziy8lOslh-58" style="edgeStyle=orthogonalEdgeStyle;rounded=1;orthogonalLoop=1;jettySize=auto;html=1;exitX=0.5;exitY=0;exitDx=0;exitDy=0;entryX=0.5;entryY=1;entryDx=0;entryDy=0;" edge="1" parent="1" target="JL5QoYLRGvVziy8lOslh-65">
          <mxGeometry relative="1" as="geometry">
            <mxPoint x="110.5" y="200" as="sourcePoint" />
          </mxGeometry>
        </mxCell>
        <mxCell id="JL5QoYLRGvVziy8lOslh-59" value="Layout" style="ellipse;whiteSpace=wrap;html=1;rounded=1;" vertex="1" parent="1">
          <mxGeometry x="119.5" y="50" width="60" height="40" as="geometry" />
        </mxCell>
        <mxCell id="JL5QoYLRGvVziy8lOslh-60" value="Type" style="ellipse;whiteSpace=wrap;html=1;rounded=1;" vertex="1" parent="1">
          <mxGeometry x="40.5" y="50" width="60" height="40" as="geometry" />
        </mxCell>
        <mxCell id="JL5QoYLRGvVziy8lOslh-61" value="Fleet &lt;br&gt;Row" style="ellipse;whiteSpace=wrap;html=1;rounded=1;" vertex="1" parent="1">
          <mxGeometry x="33.5" y="100" width="60" height="40" as="geometry" />
        </mxCell>
        <mxCell id="JL5QoYLRGvVziy8lOslh-62" value="Seat No." style="ellipse;whiteSpace=wrap;html=1;rounded=1;" vertex="1" parent="1">
          <mxGeometry x="126.5" y="100" width="60" height="40" as="geometry" />
        </mxCell>
        <mxCell id="JL5QoYLRGvVziy8lOslh-63" value="Lagguge" style="ellipse;whiteSpace=wrap;html=1;rounded=1;" vertex="1" parent="1">
          <mxGeometry x="126.5" y="150" width="60" height="40" as="geometry" />
        </mxCell>
        <mxCell id="JL5QoYLRGvVziy8lOslh-64" value="Status" style="ellipse;whiteSpace=wrap;html=1;rounded=1;" vertex="1" parent="1">
          <mxGeometry x="33.5" y="150" width="60" height="40" as="geometry" />
        </mxCell>
        <mxCell id="JL5QoYLRGvVziy8lOslh-65" value="ID" style="ellipse;whiteSpace=wrap;html=1;rounded=1;fontStyle=5;" vertex="1" parent="1">
          <mxGeometry x="80.5" y="10" width="60" height="40" as="geometry" />
        </mxCell>
        <mxCell id="JL5QoYLRGvVziy8lOslh-66" value="" style="endArrow=classic;html=1;entryX=0;entryY=1;entryDx=0;entryDy=0;exitX=0.5;exitY=0;exitDx=0;exitDy=0;rounded=1;" edge="1" parent="1" target="JL5QoYLRGvVziy8lOslh-59">
          <mxGeometry width="50" height="50" relative="1" as="geometry">
            <mxPoint x="110.5" y="200" as="sourcePoint" />
            <mxPoint x="130.5" y="80" as="targetPoint" />
            <Array as="points" />
          </mxGeometry>
        </mxCell>
        <mxCell id="JL5QoYLRGvVziy8lOslh-67" value="" style="endArrow=classic;html=1;entryX=0;entryY=1;entryDx=0;entryDy=0;rounded=1;" edge="1" parent="1" target="JL5QoYLRGvVziy8lOslh-62">
          <mxGeometry width="50" height="50" relative="1" as="geometry">
            <mxPoint x="110.5" y="200" as="sourcePoint" />
            <mxPoint x="138.5" y="94" as="targetPoint" />
            <Array as="points" />
          </mxGeometry>
        </mxCell>
        <mxCell id="JL5QoYLRGvVziy8lOslh-68" value="" style="endArrow=classic;html=1;entryX=0;entryY=1;entryDx=0;entryDy=0;exitX=0.5;exitY=0;exitDx=0;exitDy=0;rounded=1;" edge="1" parent="1" target="JL5QoYLRGvVziy8lOslh-63">
          <mxGeometry width="50" height="50" relative="1" as="geometry">
            <mxPoint x="110.5" y="200" as="sourcePoint" />
            <mxPoint x="130.5" y="180" as="targetPoint" />
          </mxGeometry>
        </mxCell>
        <mxCell id="JL5QoYLRGvVziy8lOslh-69" value="" style="edgeStyle=none;orthogonalLoop=1;jettySize=auto;html=1;rounded=1;entryX=1;entryY=1;entryDx=0;entryDy=0;" edge="1" parent="1" target="JL5QoYLRGvVziy8lOslh-60">
          <mxGeometry width="100" relative="1" as="geometry">
            <mxPoint x="110.5" y="200" as="sourcePoint" />
            <mxPoint x="140.5" y="90" as="targetPoint" />
            <Array as="points" />
          </mxGeometry>
        </mxCell>
        <mxCell id="JL5QoYLRGvVziy8lOslh-70" value="" style="edgeStyle=none;orthogonalLoop=1;jettySize=auto;html=1;rounded=1;entryX=1;entryY=1;entryDx=0;entryDy=0;exitX=0.5;exitY=0;exitDx=0;exitDy=0;" edge="1" parent="1" target="JL5QoYLRGvVziy8lOslh-61">
          <mxGeometry width="100" relative="1" as="geometry">
            <mxPoint x="110.5" y="200" as="sourcePoint" />
            <mxPoint x="84.71320343559648" y="134.14213562373095" as="targetPoint" />
            <Array as="points" />
          </mxGeometry>
        </mxCell>
        <mxCell id="JL5QoYLRGvVziy8lOslh-71" value="" style="endArrow=classic;html=1;entryX=1;entryY=1;entryDx=0;entryDy=0;rounded=1;" edge="1" parent="1" target="JL5QoYLRGvVziy8lOslh-64">
          <mxGeometry width="50" height="50" relative="1" as="geometry">
            <mxPoint x="110.5" y="200" as="sourcePoint" />
            <mxPoint x="145.5" y="194" as="targetPoint" />
          </mxGeometry>
        </mxCell>
        <mxCell id="JL5QoYLRGvVziy8lOslh-72" style="edgeStyle=orthogonalEdgeStyle;rounded=1;orthogonalLoop=1;jettySize=auto;html=1;exitX=0.5;exitY=0;exitDx=0;exitDy=0;entryX=0.5;entryY=1;entryDx=0;entryDy=0;" edge="1" parent="1" target="JL5QoYLRGvVziy8lOslh-79">
          <mxGeometry relative="1" as="geometry">
            <mxPoint x="430.5" y="200" as="sourcePoint" />
          </mxGeometry>
        </mxCell>
        <mxCell id="JL5QoYLRGvVziy8lOslh-73" value="Last Name" style="ellipse;whiteSpace=wrap;html=1;rounded=1;" vertex="1" parent="1">
          <mxGeometry x="439.5" y="50" width="60" height="40" as="geometry" />
        </mxCell>
        <mxCell id="JL5QoYLRGvVziy8lOslh-74" value="First&lt;br&gt;Name" style="ellipse;whiteSpace=wrap;html=1;rounded=1;" vertex="1" parent="1">
          <mxGeometry x="360.5" y="50" width="60" height="40" as="geometry" />
        </mxCell>
        <mxCell id="JL5QoYLRGvVziy8lOslh-75" value="Email" style="ellipse;whiteSpace=wrap;html=1;rounded=1;" vertex="1" parent="1">
          <mxGeometry x="353.5" y="100" width="60" height="40" as="geometry" />
        </mxCell>
        <mxCell id="JL5QoYLRGvVziy8lOslh-76" value="Mobile &lt;br&gt;No." style="ellipse;whiteSpace=wrap;html=1;rounded=1;" vertex="1" parent="1">
          <mxGeometry x="446.5" y="100" width="60" height="40" as="geometry" />
        </mxCell>
        <mxCell id="JL5QoYLRGvVziy8lOslh-77" value="Password" style="ellipse;whiteSpace=wrap;html=1;rounded=1;" vertex="1" parent="1">
          <mxGeometry x="446.5" y="150" width="60" height="40" as="geometry" />
        </mxCell>
        <mxCell id="JL5QoYLRGvVziy8lOslh-78" value="Address" style="ellipse;whiteSpace=wrap;html=1;rounded=1;" vertex="1" parent="1">
          <mxGeometry x="353.5" y="150" width="60" height="40" as="geometry" />
        </mxCell>
        <mxCell id="JL5QoYLRGvVziy8lOslh-79" value="ID" style="ellipse;whiteSpace=wrap;html=1;rounded=1;fontStyle=5;" vertex="1" parent="1">
          <mxGeometry x="400.5" y="10" width="60" height="40" as="geometry" />
        </mxCell>
        <mxCell id="JL5QoYLRGvVziy8lOslh-80" value="" style="endArrow=classic;html=1;entryX=0;entryY=1;entryDx=0;entryDy=0;exitX=0.5;exitY=0;exitDx=0;exitDy=0;rounded=1;" edge="1" parent="1" target="JL5QoYLRGvVziy8lOslh-73">
          <mxGeometry width="50" height="50" relative="1" as="geometry">
            <mxPoint x="430.5" y="200" as="sourcePoint" />
            <mxPoint x="450.5" y="80" as="targetPoint" />
            <Array as="points" />
          </mxGeometry>
        </mxCell>
        <mxCell id="JL5QoYLRGvVziy8lOslh-81" value="" style="endArrow=classic;html=1;entryX=0;entryY=1;entryDx=0;entryDy=0;rounded=1;" edge="1" parent="1" target="JL5QoYLRGvVziy8lOslh-76">
          <mxGeometry width="50" height="50" relative="1" as="geometry">
            <mxPoint x="430.5" y="200" as="sourcePoint" />
            <mxPoint x="458.5" y="94" as="targetPoint" />
            <Array as="points" />
          </mxGeometry>
        </mxCell>
        <mxCell id="JL5QoYLRGvVziy8lOslh-82" value="" style="endArrow=classic;html=1;entryX=0;entryY=1;entryDx=0;entryDy=0;exitX=0.5;exitY=0;exitDx=0;exitDy=0;rounded=1;" edge="1" parent="1" target="JL5QoYLRGvVziy8lOslh-77">
          <mxGeometry width="50" height="50" relative="1" as="geometry">
            <mxPoint x="430.5" y="200" as="sourcePoint" />
            <mxPoint x="450.5" y="180" as="targetPoint" />
          </mxGeometry>
        </mxCell>
        <mxCell id="JL5QoYLRGvVziy8lOslh-83" value="" style="edgeStyle=none;orthogonalLoop=1;jettySize=auto;html=1;rounded=1;entryX=1;entryY=1;entryDx=0;entryDy=0;" edge="1" parent="1" target="JL5QoYLRGvVziy8lOslh-74">
          <mxGeometry width="100" relative="1" as="geometry">
            <mxPoint x="430.5" y="200" as="sourcePoint" />
            <mxPoint x="460.5" y="90" as="targetPoint" />
            <Array as="points" />
          </mxGeometry>
        </mxCell>
        <mxCell id="JL5QoYLRGvVziy8lOslh-84" value="" style="edgeStyle=none;orthogonalLoop=1;jettySize=auto;html=1;rounded=1;entryX=1;entryY=1;entryDx=0;entryDy=0;exitX=0.5;exitY=0;exitDx=0;exitDy=0;" edge="1" parent="1" target="JL5QoYLRGvVziy8lOslh-75">
          <mxGeometry width="100" relative="1" as="geometry">
            <mxPoint x="430.5" y="200" as="sourcePoint" />
            <mxPoint x="404.7132034355965" y="134.14213562373095" as="targetPoint" />
            <Array as="points" />
          </mxGeometry>
        </mxCell>
        <mxCell id="JL5QoYLRGvVziy8lOslh-85" value="" style="endArrow=classic;html=1;entryX=1;entryY=1;entryDx=0;entryDy=0;rounded=1;" edge="1" parent="1" target="JL5QoYLRGvVziy8lOslh-78">
          <mxGeometry width="50" height="50" relative="1" as="geometry">
            <mxPoint x="430.5" y="200" as="sourcePoint" />
            <mxPoint x="465.5" y="194" as="targetPoint" />
          </mxGeometry>
        </mxCell>
        <mxCell id="JL5QoYLRGvVziy8lOslh-86" style="edgeStyle=orthogonalEdgeStyle;rounded=1;orthogonalLoop=1;jettySize=auto;html=1;exitX=0.5;exitY=0;exitDx=0;exitDy=0;entryX=0.5;entryY=1;entryDx=0;entryDy=0;" edge="1" parent="1" target="JL5QoYLRGvVziy8lOslh-93">
          <mxGeometry relative="1" as="geometry">
            <mxPoint x="590.5" y="200" as="sourcePoint" />
          </mxGeometry>
        </mxCell>
        <mxCell id="JL5QoYLRGvVziy8lOslh-87" value="End&lt;br&gt;Time" style="ellipse;whiteSpace=wrap;html=1;rounded=1;" vertex="1" parent="1">
          <mxGeometry x="599.5" y="50" width="60" height="40" as="geometry" />
        </mxCell>
        <mxCell id="JL5QoYLRGvVziy8lOslh-88" value="Start&lt;br&gt;Time" style="ellipse;whiteSpace=wrap;html=1;rounded=1;" vertex="1" parent="1">
          <mxGeometry x="520.5" y="50" width="60" height="40" as="geometry" />
        </mxCell>
        <mxCell id="JL5QoYLRGvVziy8lOslh-93" value="ID" style="ellipse;whiteSpace=wrap;html=1;rounded=1;fontStyle=5;" vertex="1" parent="1">
          <mxGeometry x="560.5" y="10" width="60" height="40" as="geometry" />
        </mxCell>
        <mxCell id="JL5QoYLRGvVziy8lOslh-94" value="" style="endArrow=classic;html=1;entryX=0;entryY=1;entryDx=0;entryDy=0;exitX=0.5;exitY=0;exitDx=0;exitDy=0;rounded=1;" edge="1" parent="1" target="JL5QoYLRGvVziy8lOslh-87" source="bE6fJ_Obk9xs4ScPlqxu-8">
          <mxGeometry width="50" height="50" relative="1" as="geometry">
            <mxPoint x="590.5" y="200" as="sourcePoint" />
            <mxPoint x="610.5" y="80" as="targetPoint" />
            <Array as="points" />
          </mxGeometry>
        </mxCell>
        <mxCell id="JL5QoYLRGvVziy8lOslh-97" value="" style="edgeStyle=none;orthogonalLoop=1;jettySize=auto;html=1;rounded=1;entryX=1;entryY=1;entryDx=0;entryDy=0;exitX=0.5;exitY=0;exitDx=0;exitDy=0;" edge="1" parent="1" target="JL5QoYLRGvVziy8lOslh-88" source="bE6fJ_Obk9xs4ScPlqxu-8">
          <mxGeometry width="100" relative="1" as="geometry">
            <mxPoint x="590.5" y="200" as="sourcePoint" />
            <mxPoint x="620.5" y="90" as="targetPoint" />
            <Array as="points" />
          </mxGeometry>
        </mxCell>
        <mxCell id="JL5QoYLRGvVziy8lOslh-115" style="edgeStyle=orthogonalEdgeStyle;rounded=1;orthogonalLoop=1;jettySize=auto;html=1;exitX=0.5;exitY=0;exitDx=0;exitDy=0;entryX=0.5;entryY=1;entryDx=0;entryDy=0;" edge="1" parent="1" target="JL5QoYLRGvVziy8lOslh-122">
          <mxGeometry relative="1" as="geometry">
            <mxPoint x="750.5" y="200" as="sourcePoint" />
          </mxGeometry>
        </mxCell>
        <mxCell id="JL5QoYLRGvVziy8lOslh-116" value="Modal&lt;br&gt;No." style="ellipse;whiteSpace=wrap;html=1;rounded=1;" vertex="1" parent="1">
          <mxGeometry x="759.5" y="50" width="60" height="40" as="geometry" />
        </mxCell>
        <mxCell id="JL5QoYLRGvVziy8lOslh-117" value="Reg/Eng&lt;br&gt;No." style="ellipse;whiteSpace=wrap;html=1;rounded=1;" vertex="1" parent="1">
          <mxGeometry x="680.5" y="50" width="60" height="40" as="geometry" />
        </mxCell>
        <mxCell id="JL5QoYLRGvVziy8lOslh-119" value="Owner&lt;br&gt;Info." style="ellipse;whiteSpace=wrap;html=1;rounded=1;" vertex="1" parent="1">
          <mxGeometry x="766.5" y="100" width="60" height="40" as="geometry" />
        </mxCell>
        <mxCell id="JL5QoYLRGvVziy8lOslh-121" value="Status" style="ellipse;whiteSpace=wrap;html=1;rounded=1;" vertex="1" parent="1">
          <mxGeometry x="673.5" y="150" width="60" height="40" as="geometry" />
        </mxCell>
        <mxCell id="JL5QoYLRGvVziy8lOslh-122" value="ID" style="ellipse;whiteSpace=wrap;html=1;rounded=1;fontStyle=5;" vertex="1" parent="1">
          <mxGeometry x="720.5" y="10" width="60" height="40" as="geometry" />
        </mxCell>
        <mxCell id="JL5QoYLRGvVziy8lOslh-123" value="" style="endArrow=classic;html=1;entryX=0;entryY=1;entryDx=0;entryDy=0;exitX=0.5;exitY=0;exitDx=0;exitDy=0;rounded=1;" edge="1" parent="1" target="JL5QoYLRGvVziy8lOslh-116">
          <mxGeometry width="50" height="50" relative="1" as="geometry">
            <mxPoint x="750.5" y="200" as="sourcePoint" />
            <mxPoint x="770.5" y="80" as="targetPoint" />
            <Array as="points" />
          </mxGeometry>
        </mxCell>
        <mxCell id="JL5QoYLRGvVziy8lOslh-124" value="" style="endArrow=classic;html=1;entryX=0;entryY=1;entryDx=0;entryDy=0;rounded=1;" edge="1" parent="1" target="JL5QoYLRGvVziy8lOslh-119">
          <mxGeometry width="50" height="50" relative="1" as="geometry">
            <mxPoint x="750.5" y="200" as="sourcePoint" />
            <mxPoint x="778.5" y="94" as="targetPoint" />
            <Array as="points" />
          </mxGeometry>
        </mxCell>
        <mxCell id="JL5QoYLRGvVziy8lOslh-125" value="" style="endArrow=classic;html=1;entryX=0;entryY=1;entryDx=0;entryDy=0;exitX=0.5;exitY=0;exitDx=0;exitDy=0;rounded=1;" edge="1" parent="1">
          <mxGeometry width="50" height="50" relative="1" as="geometry">
            <mxPoint x="750.5" y="200" as="sourcePoint" />
            <mxPoint x="775.442198430839" y="184.24498341443223" as="targetPoint" />
          </mxGeometry>
        </mxCell>
        <mxCell id="JL5QoYLRGvVziy8lOslh-126" value="" style="edgeStyle=none;orthogonalLoop=1;jettySize=auto;html=1;rounded=1;entryX=1;entryY=1;entryDx=0;entryDy=0;" edge="1" parent="1" target="JL5QoYLRGvVziy8lOslh-117">
          <mxGeometry width="100" relative="1" as="geometry">
            <mxPoint x="750.5" y="200" as="sourcePoint" />
            <mxPoint x="780.5" y="90" as="targetPoint" />
            <Array as="points" />
          </mxGeometry>
        </mxCell>
        <mxCell id="JL5QoYLRGvVziy8lOslh-127" value="" style="edgeStyle=none;orthogonalLoop=1;jettySize=auto;html=1;rounded=1;entryX=1;entryY=1;entryDx=0;entryDy=0;exitX=0.5;exitY=0;exitDx=0;exitDy=0;" edge="1" parent="1" target="JL5QoYLRGvVziy8lOslh-239">
          <mxGeometry width="100" relative="1" as="geometry">
            <mxPoint x="750.5" y="200" as="sourcePoint" />
            <mxPoint x="724.7132034355965" y="134.14213562373095" as="targetPoint" />
            <Array as="points" />
          </mxGeometry>
        </mxCell>
        <mxCell id="JL5QoYLRGvVziy8lOslh-128" value="" style="endArrow=classic;html=1;entryX=1;entryY=1;entryDx=0;entryDy=0;rounded=1;" edge="1" parent="1" target="JL5QoYLRGvVziy8lOslh-121">
          <mxGeometry width="50" height="50" relative="1" as="geometry">
            <mxPoint x="750.5" y="200" as="sourcePoint" />
            <mxPoint x="785.5" y="194" as="targetPoint" />
          </mxGeometry>
        </mxCell>
        <mxCell id="JL5QoYLRGvVziy8lOslh-144" value="Password" style="ellipse;whiteSpace=wrap;html=1;rounded=1;" vertex="1" parent="1">
          <mxGeometry x="447" y="910" width="60" height="40" as="geometry" />
        </mxCell>
        <mxCell id="JL5QoYLRGvVziy8lOslh-145" value="Address" style="ellipse;whiteSpace=wrap;html=1;rounded=1;" vertex="1" parent="1">
          <mxGeometry x="353.5" y="910" width="60" height="40" as="geometry" />
        </mxCell>
        <mxCell id="JL5QoYLRGvVziy8lOslh-146" value="Email" style="ellipse;whiteSpace=wrap;html=1;rounded=1;" vertex="1" parent="1">
          <mxGeometry x="352.5" y="960" width="60" height="40" as="geometry" />
        </mxCell>
        <mxCell id="JL5QoYLRGvVziy8lOslh-147" value="Mobile&lt;br&gt;No." style="ellipse;whiteSpace=wrap;html=1;rounded=1;" vertex="1" parent="1">
          <mxGeometry x="447" y="960" width="60" height="40" as="geometry" />
        </mxCell>
        <mxCell id="JL5QoYLRGvVziy8lOslh-148" value="Last&amp;nbsp;&lt;br&gt;Name" style="ellipse;whiteSpace=wrap;html=1;rounded=1;" vertex="1" parent="1">
          <mxGeometry x="439.5" y="1010" width="60" height="40" as="geometry" />
        </mxCell>
        <mxCell id="JL5QoYLRGvVziy8lOslh-149" value="ID" style="ellipse;whiteSpace=wrap;html=1;rounded=1;fontStyle=5;" vertex="1" parent="1">
          <mxGeometry x="400.5" y="1050" width="60" height="40" as="geometry" />
        </mxCell>
        <mxCell id="JL5QoYLRGvVziy8lOslh-150" value="First&lt;br&gt;Name" style="ellipse;whiteSpace=wrap;html=1;rounded=1;" vertex="1" parent="1">
          <mxGeometry x="360.5" y="1010" width="60" height="40" as="geometry" />
        </mxCell>
        <mxCell id="JL5QoYLRGvVziy8lOslh-158" value="" style="endArrow=classic;html=1;exitX=0.5;exitY=1;exitDx=0;exitDy=0;entryX=0;entryY=0;entryDx=0;entryDy=0;rounded=1;" edge="1" parent="1" source="bE6fJ_Obk9xs4ScPlqxu-18" target="JL5QoYLRGvVziy8lOslh-148">
          <mxGeometry width="50" height="50" relative="1" as="geometry">
            <mxPoint x="410" y="1020" as="sourcePoint" />
            <mxPoint x="460" y="970" as="targetPoint" />
          </mxGeometry>
        </mxCell>
        <mxCell id="JL5QoYLRGvVziy8lOslh-159" value="" style="endArrow=classic;html=1;exitX=0.5;exitY=1;exitDx=0;exitDy=0;entryX=1;entryY=0;entryDx=0;entryDy=0;rounded=1;" edge="1" parent="1" source="bE6fJ_Obk9xs4ScPlqxu-18" target="JL5QoYLRGvVziy8lOslh-150">
          <mxGeometry width="50" height="50" relative="1" as="geometry">
            <mxPoint x="440" y="910" as="sourcePoint" />
            <mxPoint x="458" y="1026" as="targetPoint" />
          </mxGeometry>
        </mxCell>
        <mxCell id="JL5QoYLRGvVziy8lOslh-160" value="" style="endArrow=classic;html=1;entryX=0;entryY=0;entryDx=0;entryDy=0;rounded=1;" edge="1" parent="1" target="JL5QoYLRGvVziy8lOslh-147">
          <mxGeometry width="50" height="50" relative="1" as="geometry">
            <mxPoint x="430" y="900" as="sourcePoint" />
            <mxPoint x="468" y="1036" as="targetPoint" />
          </mxGeometry>
        </mxCell>
        <mxCell id="JL5QoYLRGvVziy8lOslh-161" value="" style="endArrow=classic;html=1;entryX=1;entryY=0;entryDx=0;entryDy=0;exitX=0.5;exitY=1;exitDx=0;exitDy=0;rounded=1;" edge="1" parent="1" source="bE6fJ_Obk9xs4ScPlqxu-18" target="JL5QoYLRGvVziy8lOslh-146">
          <mxGeometry width="50" height="50" relative="1" as="geometry">
            <mxPoint x="440" y="910" as="sourcePoint" />
            <mxPoint x="469" y="976" as="targetPoint" />
          </mxGeometry>
        </mxCell>
        <mxCell id="JL5QoYLRGvVziy8lOslh-162" value="" style="endArrow=classic;html=1;entryX=0;entryY=0;entryDx=0;entryDy=0;exitX=0.5;exitY=1;exitDx=0;exitDy=0;rounded=1;" edge="1" parent="1" source="bE6fJ_Obk9xs4ScPlqxu-18" target="JL5QoYLRGvVziy8lOslh-144">
          <mxGeometry width="50" height="50" relative="1" as="geometry">
            <mxPoint x="370" y="1000" as="sourcePoint" />
            <mxPoint x="420" y="950" as="targetPoint" />
          </mxGeometry>
        </mxCell>
        <mxCell id="JL5QoYLRGvVziy8lOslh-163" value="" style="endArrow=classic;html=1;entryX=1;entryY=0;entryDx=0;entryDy=0;rounded=1;" edge="1" parent="1" target="JL5QoYLRGvVziy8lOslh-145">
          <mxGeometry width="50" height="50" relative="1" as="geometry">
            <mxPoint x="430" y="900" as="sourcePoint" />
            <mxPoint x="465" y="926" as="targetPoint" />
          </mxGeometry>
        </mxCell>
        <mxCell id="JL5QoYLRGvVziy8lOslh-178" style="edgeStyle=orthogonalEdgeStyle;orthogonalLoop=1;jettySize=auto;html=1;exitX=0.5;exitY=1;exitDx=0;exitDy=0;rounded=1;" edge="1" parent="1">
          <mxGeometry relative="1" as="geometry">
            <mxPoint x="270.25" y="901" as="sourcePoint" />
            <mxPoint x="270.75" y="1051" as="targetPoint" />
          </mxGeometry>
        </mxCell>
        <mxCell id="JL5QoYLRGvVziy8lOslh-180" value="Address" style="ellipse;whiteSpace=wrap;html=1;rounded=1;" vertex="1" parent="1">
          <mxGeometry x="193.75" y="910" width="60" height="40" as="geometry" />
        </mxCell>
        <mxCell id="JL5QoYLRGvVziy8lOslh-181" value="Emp.&lt;br&gt;Type" style="ellipse;whiteSpace=wrap;html=1;rounded=1;" vertex="1" parent="1">
          <mxGeometry x="192.75" y="960" width="60" height="40" as="geometry" />
        </mxCell>
        <mxCell id="JL5QoYLRGvVziy8lOslh-182" value="ID&lt;br&gt;Type/No." style="ellipse;whiteSpace=wrap;html=1;rounded=1;" vertex="1" parent="1">
          <mxGeometry x="287.25" y="960" width="60" height="40" as="geometry" />
        </mxCell>
        <mxCell id="JL5QoYLRGvVziy8lOslh-183" value="Email&lt;br&gt;Ph. No." style="ellipse;whiteSpace=wrap;html=1;rounded=1;" vertex="1" parent="1">
          <mxGeometry x="279.75" y="1010" width="60" height="40" as="geometry" />
        </mxCell>
        <mxCell id="JL5QoYLRGvVziy8lOslh-184" value="ID" style="ellipse;whiteSpace=wrap;html=1;rounded=1;fontStyle=5;" vertex="1" parent="1">
          <mxGeometry x="240.75" y="1050" width="60" height="40" as="geometry" />
        </mxCell>
        <mxCell id="JL5QoYLRGvVziy8lOslh-185" value="Name" style="ellipse;whiteSpace=wrap;html=1;rounded=1;" vertex="1" parent="1">
          <mxGeometry x="200.75" y="1010" width="60" height="40" as="geometry" />
        </mxCell>
        <mxCell id="JL5QoYLRGvVziy8lOslh-186" value="" style="endArrow=classic;html=1;exitX=0.5;exitY=1;exitDx=0;exitDy=0;entryX=0;entryY=0;entryDx=0;entryDy=0;rounded=1;" edge="1" parent="1" target="JL5QoYLRGvVziy8lOslh-183">
          <mxGeometry width="50" height="50" relative="1" as="geometry">
            <mxPoint x="270.25" y="900" as="sourcePoint" />
            <mxPoint x="300.25" y="970" as="targetPoint" />
          </mxGeometry>
        </mxCell>
        <mxCell id="JL5QoYLRGvVziy8lOslh-187" value="" style="endArrow=classic;html=1;exitX=0.5;exitY=1;exitDx=0;exitDy=0;entryX=1;entryY=0;entryDx=0;entryDy=0;rounded=1;" edge="1" parent="1" target="JL5QoYLRGvVziy8lOslh-185">
          <mxGeometry width="50" height="50" relative="1" as="geometry">
            <mxPoint x="270.25" y="900" as="sourcePoint" />
            <mxPoint x="298.25" y="1026" as="targetPoint" />
          </mxGeometry>
        </mxCell>
        <mxCell id="JL5QoYLRGvVziy8lOslh-188" value="" style="endArrow=classic;html=1;entryX=0;entryY=0;entryDx=0;entryDy=0;rounded=1;" edge="1" parent="1" target="JL5QoYLRGvVziy8lOslh-182">
          <mxGeometry width="50" height="50" relative="1" as="geometry">
            <mxPoint x="270.25" y="900" as="sourcePoint" />
            <mxPoint x="308.25" y="1036" as="targetPoint" />
          </mxGeometry>
        </mxCell>
        <mxCell id="JL5QoYLRGvVziy8lOslh-189" value="" style="endArrow=classic;html=1;entryX=1;entryY=0;entryDx=0;entryDy=0;exitX=0.5;exitY=1;exitDx=0;exitDy=0;rounded=1;" edge="1" parent="1" target="JL5QoYLRGvVziy8lOslh-181">
          <mxGeometry width="50" height="50" relative="1" as="geometry">
            <mxPoint x="270.25" y="900" as="sourcePoint" />
            <mxPoint x="309.25" y="976" as="targetPoint" />
          </mxGeometry>
        </mxCell>
        <mxCell id="JL5QoYLRGvVziy8lOslh-190" value="" style="endArrow=classic;html=1;entryX=0;entryY=0;entryDx=0;entryDy=0;exitX=0.5;exitY=1;exitDx=0;exitDy=0;rounded=1;" edge="1" parent="1">
          <mxGeometry width="50" height="50" relative="1" as="geometry">
            <mxPoint x="270.25" y="900" as="sourcePoint" />
            <mxPoint x="296.1921984308465" y="915.7550165855728" as="targetPoint" />
          </mxGeometry>
        </mxCell>
        <mxCell id="JL5QoYLRGvVziy8lOslh-191" value="" style="endArrow=classic;html=1;entryX=1;entryY=0;entryDx=0;entryDy=0;rounded=1;" edge="1" parent="1" target="JL5QoYLRGvVziy8lOslh-180">
          <mxGeometry width="50" height="50" relative="1" as="geometry">
            <mxPoint x="270.25" y="900" as="sourcePoint" />
            <mxPoint x="305.25" y="926" as="targetPoint" />
          </mxGeometry>
        </mxCell>
        <mxCell id="JL5QoYLRGvVziy8lOslh-192" style="edgeStyle=orthogonalEdgeStyle;orthogonalLoop=1;jettySize=auto;html=1;exitX=0.5;exitY=1;exitDx=0;exitDy=0;rounded=1;" edge="1" parent="1">
          <mxGeometry relative="1" as="geometry">
            <mxPoint x="590.75" y="901" as="sourcePoint" />
            <mxPoint x="591.25" y="1051" as="targetPoint" />
          </mxGeometry>
        </mxCell>
        <mxCell id="JL5QoYLRGvVziy8lOslh-197" value="Drop" style="ellipse;whiteSpace=wrap;html=1;rounded=1;" vertex="1" parent="1">
          <mxGeometry x="600.25" y="1010" width="60" height="40" as="geometry" />
        </mxCell>
        <mxCell id="JL5QoYLRGvVziy8lOslh-198" value="ID" style="ellipse;whiteSpace=wrap;html=1;rounded=1;fontStyle=5;" vertex="1" parent="1">
          <mxGeometry x="561.25" y="1050" width="60" height="40" as="geometry" />
        </mxCell>
        <mxCell id="JL5QoYLRGvVziy8lOslh-199" value="Pick UP" style="ellipse;whiteSpace=wrap;html=1;rounded=1;" vertex="1" parent="1">
          <mxGeometry x="521.25" y="1010" width="60" height="40" as="geometry" />
        </mxCell>
        <mxCell id="JL5QoYLRGvVziy8lOslh-200" value="" style="endArrow=classic;html=1;exitX=0.5;exitY=1;exitDx=0;exitDy=0;entryX=0;entryY=0;entryDx=0;entryDy=0;rounded=1;" edge="1" parent="1" target="JL5QoYLRGvVziy8lOslh-197">
          <mxGeometry width="50" height="50" relative="1" as="geometry">
            <mxPoint x="590.75" y="900" as="sourcePoint" />
            <mxPoint x="620.75" y="970" as="targetPoint" />
          </mxGeometry>
        </mxCell>
        <mxCell id="JL5QoYLRGvVziy8lOslh-201" value="" style="endArrow=classic;html=1;exitX=0.5;exitY=1;exitDx=0;exitDy=0;entryX=1;entryY=0;entryDx=0;entryDy=0;rounded=1;" edge="1" parent="1" target="JL5QoYLRGvVziy8lOslh-199">
          <mxGeometry width="50" height="50" relative="1" as="geometry">
            <mxPoint x="590.75" y="900" as="sourcePoint" />
            <mxPoint x="618.75" y="1026" as="targetPoint" />
          </mxGeometry>
        </mxCell>
        <mxCell id="JL5QoYLRGvVziy8lOslh-202" value="" style="endArrow=classic;html=1;entryX=0;entryY=0;entryDx=0;entryDy=0;rounded=1;" edge="1" parent="1">
          <mxGeometry width="50" height="50" relative="1" as="geometry">
            <mxPoint x="590.75" y="900" as="sourcePoint" />
            <mxPoint x="616.692198430839" y="965.7550165855678" as="targetPoint" />
          </mxGeometry>
        </mxCell>
        <mxCell id="JL5QoYLRGvVziy8lOslh-203" value="" style="endArrow=classic;html=1;entryX=1;entryY=0;entryDx=0;entryDy=0;exitX=0.5;exitY=1;exitDx=0;exitDy=0;rounded=1;" edge="1" parent="1">
          <mxGeometry width="50" height="50" relative="1" as="geometry">
            <mxPoint x="590.75" y="900" as="sourcePoint" />
            <mxPoint x="564.4632034355966" y="965.8578643762689" as="targetPoint" />
          </mxGeometry>
        </mxCell>
        <mxCell id="JL5QoYLRGvVziy8lOslh-204" value="" style="endArrow=classic;html=1;entryX=0;entryY=0;entryDx=0;entryDy=0;exitX=0.5;exitY=1;exitDx=0;exitDy=0;rounded=1;" edge="1" parent="1">
          <mxGeometry width="50" height="50" relative="1" as="geometry">
            <mxPoint x="590.75" y="900" as="sourcePoint" />
            <mxPoint x="616.5367965644034" y="915.8578643762692" as="targetPoint" />
          </mxGeometry>
        </mxCell>
        <mxCell id="JL5QoYLRGvVziy8lOslh-205" value="" style="endArrow=classic;html=1;entryX=1;entryY=0;entryDx=0;entryDy=0;rounded=1;" edge="1" parent="1">
          <mxGeometry width="50" height="50" relative="1" as="geometry">
            <mxPoint x="590.75" y="900" as="sourcePoint" />
            <mxPoint x="565.4632034355964" y="915.8578643762689" as="targetPoint" />
          </mxGeometry>
        </mxCell>
        <mxCell id="JL5QoYLRGvVziy8lOslh-206" style="edgeStyle=orthogonalEdgeStyle;orthogonalLoop=1;jettySize=auto;html=1;exitX=0.5;exitY=1;exitDx=0;exitDy=0;rounded=1;" edge="1" parent="1">
          <mxGeometry relative="1" as="geometry">
            <mxPoint x="750.75" y="901" as="sourcePoint" />
            <mxPoint x="751.25" y="1051" as="targetPoint" />
          </mxGeometry>
        </mxCell>
        <mxCell id="JL5QoYLRGvVziy8lOslh-207" value="Total Amt." style="ellipse;whiteSpace=wrap;html=1;rounded=1;" vertex="1" parent="1">
          <mxGeometry x="767.75" y="910" width="60" height="40" as="geometry" />
        </mxCell>
        <mxCell id="JL5QoYLRGvVziy8lOslh-208" value="Seat No." style="ellipse;whiteSpace=wrap;html=1;rounded=1;" vertex="1" parent="1">
          <mxGeometry x="674.25" y="910" width="60" height="40" as="geometry" />
        </mxCell>
        <mxCell id="JL5QoYLRGvVziy8lOslh-212" value="ID" style="ellipse;whiteSpace=wrap;html=1;rounded=1;fontStyle=5;" vertex="1" parent="1">
          <mxGeometry x="721.25" y="1050" width="60" height="40" as="geometry" />
        </mxCell>
        <mxCell id="JL5QoYLRGvVziy8lOslh-213" value="Booking&lt;br&gt;ID/Date" style="ellipse;whiteSpace=wrap;html=1;rounded=1;" vertex="1" parent="1">
          <mxGeometry x="681.25" y="1010" width="60" height="40" as="geometry" />
        </mxCell>
        <mxCell id="JL5QoYLRGvVziy8lOslh-214" value="" style="endArrow=classic;html=1;exitX=0.5;exitY=1;exitDx=0;exitDy=0;entryX=0;entryY=0;entryDx=0;entryDy=0;rounded=1;" edge="1" parent="1" target="JL5QoYLRGvVziy8lOslh-240">
          <mxGeometry width="50" height="50" relative="1" as="geometry">
            <mxPoint x="750.75" y="900" as="sourcePoint" />
            <mxPoint x="780.75" y="970" as="targetPoint" />
          </mxGeometry>
        </mxCell>
        <mxCell id="JL5QoYLRGvVziy8lOslh-215" value="" style="endArrow=classic;html=1;exitX=0.5;exitY=1;exitDx=0;exitDy=0;entryX=1;entryY=0;entryDx=0;entryDy=0;rounded=1;" edge="1" parent="1" target="JL5QoYLRGvVziy8lOslh-213">
          <mxGeometry width="50" height="50" relative="1" as="geometry">
            <mxPoint x="750.75" y="900" as="sourcePoint" />
            <mxPoint x="778.75" y="1026" as="targetPoint" />
          </mxGeometry>
        </mxCell>
        <mxCell id="JL5QoYLRGvVziy8lOslh-216" value="" style="endArrow=classic;html=1;entryX=0;entryY=0;entryDx=0;entryDy=0;rounded=1;" edge="1" parent="1" target="JL5QoYLRGvVziy8lOslh-241">
          <mxGeometry width="50" height="50" relative="1" as="geometry">
            <mxPoint x="750.75" y="900" as="sourcePoint" />
            <mxPoint x="788.75" y="1036" as="targetPoint" />
          </mxGeometry>
        </mxCell>
        <mxCell id="JL5QoYLRGvVziy8lOslh-217" value="" style="endArrow=classic;html=1;entryX=1;entryY=0;entryDx=0;entryDy=0;exitX=0.5;exitY=1;exitDx=0;exitDy=0;rounded=1;" edge="1" parent="1">
          <mxGeometry width="50" height="50" relative="1" as="geometry">
            <mxPoint x="750.75" y="900" as="sourcePoint" />
            <mxPoint x="724.4632034355966" y="965.8578643762689" as="targetPoint" />
          </mxGeometry>
        </mxCell>
        <mxCell id="JL5QoYLRGvVziy8lOslh-218" value="" style="endArrow=classic;html=1;entryX=0;entryY=0;entryDx=0;entryDy=0;exitX=0.5;exitY=1;exitDx=0;exitDy=0;rounded=1;" edge="1" parent="1" target="JL5QoYLRGvVziy8lOslh-207">
          <mxGeometry width="50" height="50" relative="1" as="geometry">
            <mxPoint x="750.75" y="900" as="sourcePoint" />
            <mxPoint x="740.75" y="950" as="targetPoint" />
          </mxGeometry>
        </mxCell>
        <mxCell id="JL5QoYLRGvVziy8lOslh-219" value="" style="endArrow=classic;html=1;entryX=1;entryY=0;entryDx=0;entryDy=0;rounded=1;" edge="1" parent="1" target="JL5QoYLRGvVziy8lOslh-208">
          <mxGeometry width="50" height="50" relative="1" as="geometry">
            <mxPoint x="750.75" y="900" as="sourcePoint" />
            <mxPoint x="785.75" y="926" as="targetPoint" />
          </mxGeometry>
        </mxCell>
        <mxCell id="JL5QoYLRGvVziy8lOslh-220" style="edgeStyle=orthogonalEdgeStyle;orthogonalLoop=1;jettySize=auto;html=1;exitX=0.5;exitY=1;exitDx=0;exitDy=0;rounded=1;" edge="1" parent="1">
          <mxGeometry relative="1" as="geometry">
            <mxPoint x="110.25" y="901" as="sourcePoint" />
            <mxPoint x="110.75" y="1051" as="targetPoint" />
          </mxGeometry>
        </mxCell>
        <mxCell id="JL5QoYLRGvVziy8lOslh-221" value="Status" style="ellipse;whiteSpace=wrap;html=1;rounded=1;" vertex="1" parent="1">
          <mxGeometry x="127.25" y="910" width="60" height="40" as="geometry" />
        </mxCell>
        <mxCell id="JL5QoYLRGvVziy8lOslh-222" value="Message" style="ellipse;whiteSpace=wrap;html=1;rounded=1;" vertex="1" parent="1">
          <mxGeometry x="33.75" y="910" width="60" height="40" as="geometry" />
        </mxCell>
        <mxCell id="JL5QoYLRGvVziy8lOslh-223" value="Mobile&lt;br&gt;No." style="ellipse;whiteSpace=wrap;html=1;rounded=1;" vertex="1" parent="1">
          <mxGeometry x="32.75" y="960" width="60" height="40" as="geometry" />
        </mxCell>
        <mxCell id="JL5QoYLRGvVziy8lOslh-224" value="Subject" style="ellipse;whiteSpace=wrap;html=1;rounded=1;" vertex="1" parent="1">
          <mxGeometry x="127.25" y="960" width="60" height="40" as="geometry" />
        </mxCell>
        <mxCell id="JL5QoYLRGvVziy8lOslh-225" value="Email" style="ellipse;whiteSpace=wrap;html=1;rounded=1;" vertex="1" parent="1">
          <mxGeometry x="119.75" y="1010" width="60" height="40" as="geometry" />
        </mxCell>
        <mxCell id="JL5QoYLRGvVziy8lOslh-226" value="ID" style="ellipse;whiteSpace=wrap;html=1;rounded=1;fontStyle=5;" vertex="1" parent="1">
          <mxGeometry x="80.75" y="1050" width="60" height="40" as="geometry" />
        </mxCell>
        <mxCell id="JL5QoYLRGvVziy8lOslh-227" value="Name" style="ellipse;whiteSpace=wrap;html=1;rounded=1;" vertex="1" parent="1">
          <mxGeometry x="40.75" y="1010" width="60" height="40" as="geometry" />
        </mxCell>
        <mxCell id="JL5QoYLRGvVziy8lOslh-228" value="" style="endArrow=classic;html=1;exitX=0.5;exitY=1;exitDx=0;exitDy=0;entryX=0;entryY=0;entryDx=0;entryDy=0;rounded=1;" edge="1" parent="1" target="JL5QoYLRGvVziy8lOslh-225">
          <mxGeometry width="50" height="50" relative="1" as="geometry">
            <mxPoint x="110.25" y="900" as="sourcePoint" />
            <mxPoint x="140.25" y="970" as="targetPoint" />
          </mxGeometry>
        </mxCell>
        <mxCell id="JL5QoYLRGvVziy8lOslh-229" value="" style="endArrow=classic;html=1;exitX=0.5;exitY=1;exitDx=0;exitDy=0;entryX=1;entryY=0;entryDx=0;entryDy=0;rounded=1;" edge="1" parent="1" target="JL5QoYLRGvVziy8lOslh-227">
          <mxGeometry width="50" height="50" relative="1" as="geometry">
            <mxPoint x="110.25" y="900" as="sourcePoint" />
            <mxPoint x="138.25" y="1026" as="targetPoint" />
          </mxGeometry>
        </mxCell>
        <mxCell id="JL5QoYLRGvVziy8lOslh-230" value="" style="endArrow=classic;html=1;entryX=0;entryY=0;entryDx=0;entryDy=0;rounded=1;" edge="1" parent="1" target="JL5QoYLRGvVziy8lOslh-224">
          <mxGeometry width="50" height="50" relative="1" as="geometry">
            <mxPoint x="110.25" y="900" as="sourcePoint" />
            <mxPoint x="148.25" y="1036" as="targetPoint" />
          </mxGeometry>
        </mxCell>
        <mxCell id="JL5QoYLRGvVziy8lOslh-231" value="" style="endArrow=classic;html=1;entryX=1;entryY=0;entryDx=0;entryDy=0;exitX=0.5;exitY=1;exitDx=0;exitDy=0;rounded=1;" edge="1" parent="1" target="JL5QoYLRGvVziy8lOslh-223">
          <mxGeometry width="50" height="50" relative="1" as="geometry">
            <mxPoint x="110.25" y="900" as="sourcePoint" />
            <mxPoint x="149.25" y="976" as="targetPoint" />
          </mxGeometry>
        </mxCell>
        <mxCell id="JL5QoYLRGvVziy8lOslh-232" value="" style="endArrow=classic;html=1;entryX=0;entryY=0;entryDx=0;entryDy=0;exitX=0.5;exitY=1;exitDx=0;exitDy=0;rounded=1;" edge="1" parent="1" target="JL5QoYLRGvVziy8lOslh-221">
          <mxGeometry width="50" height="50" relative="1" as="geometry">
            <mxPoint x="110.25" y="900" as="sourcePoint" />
            <mxPoint x="100.25" y="950" as="targetPoint" />
          </mxGeometry>
        </mxCell>
        <mxCell id="JL5QoYLRGvVziy8lOslh-233" value="" style="endArrow=classic;html=1;entryX=1;entryY=0;entryDx=0;entryDy=0;rounded=1;" edge="1" parent="1" target="JL5QoYLRGvVziy8lOslh-222">
          <mxGeometry width="50" height="50" relative="1" as="geometry">
            <mxPoint x="110.25" y="900" as="sourcePoint" />
            <mxPoint x="145.25" y="926" as="targetPoint" />
          </mxGeometry>
        </mxCell>
        <mxCell id="JL5QoYLRGvVziy8lOslh-234" value="ID" style="ellipse;whiteSpace=wrap;html=1;rounded=1;fontStyle=5;" vertex="1" parent="1">
          <mxGeometry x="240.75" y="10" width="60" height="40" as="geometry" />
        </mxCell>
        <mxCell id="JL5QoYLRGvVziy8lOslh-239" value="Fleet&amp;nbsp;&lt;br style=&quot;border-color: var(--border-color); font-weight: 700;&quot;&gt;&lt;span style=&quot;&quot;&gt;ID/Type&lt;/span&gt;" style="ellipse;whiteSpace=wrap;html=1;align=center;dashed=1;fontStyle=0" vertex="1" parent="1">
          <mxGeometry x="673.25" y="100" width="60" height="40" as="geometry" />
        </mxCell>
        <mxCell id="JL5QoYLRGvVziy8lOslh-240" value="Passenger" style="ellipse;whiteSpace=wrap;html=1;align=center;dashed=1;" vertex="1" parent="1">
          <mxGeometry x="766.62" y="1010" width="59.75" height="40" as="geometry" />
        </mxCell>
        <mxCell id="JL5QoYLRGvVziy8lOslh-241" value="PickUp/&lt;br style=&quot;border-color: var(--border-color);&quot;&gt;Drop" style="ellipse;whiteSpace=wrap;html=1;align=center;dashed=1;" vertex="1" parent="1">
          <mxGeometry x="770" y="960" width="60" height="40" as="geometry" />
        </mxCell>
        <mxCell id="JL5QoYLRGvVziy8lOslh-243" value="Trip" style="ellipse;whiteSpace=wrap;html=1;align=center;dashed=1;" vertex="1" parent="1">
          <mxGeometry x="673.38" y="960" width="59.75" height="40" as="geometry" />
        </mxCell>
        <mxCell id="JL5QoYLRGvVziy8lOslh-244" value="Fleet/&lt;br style=&quot;border-color: var(--border-color);&quot;&gt;&lt;span style=&quot;&quot;&gt;Vehical&lt;/span&gt;" style="ellipse;whiteSpace=wrap;html=1;align=center;dashed=1;fontStyle=0" vertex="1" parent="1">
          <mxGeometry x="513.25" y="910" width="60.5" height="40" as="geometry" />
        </mxCell>
        <mxCell id="JL5QoYLRGvVziy8lOslh-245" value="Loc./&lt;br style=&quot;border-color: var(--border-color);&quot;&gt;&lt;span style=&quot;&quot;&gt;Schedule&lt;/span&gt;" style="ellipse;whiteSpace=wrap;html=1;align=center;dashed=1;fontStyle=0" vertex="1" parent="1">
          <mxGeometry x="514.25" y="960" width="59.5" height="40" as="geometry" />
        </mxCell>
        <mxCell id="JL5QoYLRGvVziy8lOslh-246" value="Emp./&lt;br style=&quot;border-color: var(--border-color);&quot;&gt;&lt;span style=&quot;&quot;&gt;Facility&lt;/span&gt;" style="ellipse;whiteSpace=wrap;html=1;align=center;dashed=1;fontStyle=0" vertex="1" parent="1">
          <mxGeometry x="608.25" y="910" width="59.5" height="40" as="geometry" />
        </mxCell>
        <mxCell id="JL5QoYLRGvVziy8lOslh-252" value="Images" style="ellipse;shape=doubleEllipse;margin=3;whiteSpace=wrap;html=1;align=center;" vertex="1" parent="1">
          <mxGeometry x="766.25" y="150" width="60.25" height="40" as="geometry" />
        </mxCell>
        <mxCell id="JL5QoYLRGvVziy8lOslh-255" value="Images" style="ellipse;shape=doubleEllipse;margin=3;whiteSpace=wrap;html=1;align=center;" vertex="1" parent="1">
          <mxGeometry x="287" y="910" width="60.25" height="40" as="geometry" />
        </mxCell>
        <mxCell id="JL5QoYLRGvVziy8lOslh-257" value="Fair ( ₹ )" style="ellipse;shape=doubleEllipse;margin=3;whiteSpace=wrap;html=1;align=center;" vertex="1" parent="1">
          <mxGeometry x="607.5" y="960" width="60.25" height="40" as="geometry" />
        </mxCell>
      </root>
    </mxGraphModel>
  </diagram>
</mxfile>
